<svg xmlns="http://www.w3.org/2000/svg" width="200" height="199" viewBox="0 0 200 199" fill="none"><path d="M116.667 74.75L190.083 89.3333C196 90.5833 200 95.5833 200 101.5V186.5C200 193.417 194.417 199 187.5 199H112.5C114.833 199 116.667 197.167 116.667 194.833V190.667H187.5C189.75 190.667 191.667 188.833 191.667 186.5V101.5C191.667 99.5833 190.333 97.8333 188.417 97.4167L116.667 83.25V74.75Z" fill="#E8E8E8"></path><path d="M162.5 115.667C164.834 115.667 166.667 117.5 166.667 119.833C166.667 122.167 164.834 124 162.5 124H145.834C143.5 124 141.667 122.167 141.667 119.833C141.667 117.5 143.5 115.667 145.834 115.667H162.5Z" fill="#E8E8E8"></path><path d="M162.5 140.667C164.834 140.667 166.667 142.5 166.667 144.833C166.667 147.167 164.834 149 162.5 149H145.834C143.5 149 141.667 147.167 141.667 144.833C141.667 142.5 143.5 140.667 145.834 140.667H162.5Z" fill="#E8E8E8"></path><path d="M162.5 165.667C164.834 165.667 166.667 167.5 166.667 169.833C166.667 172.167 164.834 174 162.5 174H145.834C143.5 174 141.667 172.167 141.667 169.833C141.667 167.5 143.5 165.667 145.834 165.667H162.5Z" fill="#E8E8E8"></path><path d="M116.666 194.833C116.666 197.167 114.833 199 112.5 199C110.166 199 108.333 197.167 108.333 194.833V190.667V78.1666C108.333 76.9166 108.916 75.75 109.833 74.9166C110.833 74.1666 112.083 73.8333 113.333 74.0833L116.666 74.75V83.25V190.667V194.833Z" fill="#E8E8E8"></path><path d="M108.334 190.667V194.833C108.334 197.167 110.167 199 112.5 199H79.167C81.5003 199 83.3337 197.167 83.3337 194.833V190.667H108.334Z" fill="#E8E8E8"></path><path d="M87.5003 40.6666C89.8337 40.6666 91.667 42.5 91.667 44.8333C91.667 47.1666 89.8337 49 87.5003 49H70.8337C68.5003 49 66.667 47.1666 66.667 44.8333C66.667 42.5 68.5003 40.6666 70.8337 40.6666H87.5003Z" fill="#E8E8E8"></path><path d="M91.667 69.8333C91.667 72.1666 89.8337 74 87.5003 74H70.8337C68.5003 74 66.667 72.1666 66.667 69.8333C66.667 67.5 68.5003 65.6666 70.8337 65.6666H87.5003C89.8337 65.6666 91.667 67.5 91.667 69.8333Z" fill="#E8E8E8"></path><path d="M87.5003 90.6666C89.8337 90.6666 91.667 92.5 91.667 94.8333C91.667 97.1666 89.8337 99 87.5003 99H70.8337C68.5003 99 66.667 97.1666 66.667 94.8333C66.667 92.5 68.5003 90.6666 70.8337 90.6666H87.5003Z" fill="#E8E8E8"></path><path d="M87.5003 115.667C89.8337 115.667 91.667 117.5 91.667 119.833C91.667 122.167 89.8337 124 87.5003 124H70.8337C68.5003 124 66.667 122.167 66.667 119.833C66.667 117.5 68.5003 115.667 70.8337 115.667H87.5003Z" fill="#E8E8E8"></path><path d="M50 119.833C50 122.167 48.1667 124 45.8333 124H29.1667C26.8333 124 25 122.167 25 119.833C25 117.5 26.8333 115.667 29.1667 115.667H45.8333C48.1667 115.667 50 117.5 50 119.833Z" fill="#E8E8E8"></path><path d="M45.8333 40.6666C48.1667 40.6666 50 42.5 50 44.8333C50 47.1666 48.1667 49 45.8333 49H29.1667C26.8333 49 25 47.1666 25 44.8333C25 42.5 26.8333 40.6666 29.1667 40.6666H45.8333Z" fill="#E8E8E8"></path><path d="M45.8333 65.6666C48.1667 65.6666 50 67.5 50 69.8333C50 72.1666 48.1667 74 45.8333 74H29.1667C26.8333 74 25 72.1666 25 69.8333C25 67.5 26.8333 65.6666 29.1667 65.6666H45.8333Z" fill="#E8E8E8"></path><path d="M45.8333 90.6666C48.1667 90.6666 50 92.5 50 94.8333C50 97.1666 48.1667 99 45.8333 99H29.1667C26.8333 99 25 97.1666 25 94.8333C25 92.5 26.8333 90.6666 29.1667 90.6666H45.8333Z" fill="#E8E8E8"></path><path d="M74.9997 153.167C74.9997 150.833 73.083 149 70.833 149H45.833C43.4997 149 41.6663 150.833 41.6663 153.167V190.667H33.333V153.167C33.333 146.25 38.9163 140.667 45.833 140.667H70.833C77.7497 140.667 83.333 146.25 83.333 153.167V190.667H74.9997V153.167Z" fill="#E8E8E8"></path><path d="M41.6663 190.667H74.9997H83.333V194.833C83.333 197.167 81.4997 199 79.1663 199H37.4997C35.1663 199 33.333 197.167 33.333 194.833V190.667H41.6663Z" fill="#E8E8E8"></path><path d="M14.5833 0.666636L106.167 14.5833C112.25 15.5833 116.667 20.75 116.667 26.9166V74.75L113.333 74.0833C112.083 73.8333 110.833 74.1666 109.833 74.9166C108.917 75.75 108.333 76.9166 108.333 78.1666V26.9166C108.333 24.8333 106.833 23.0833 104.833 22.75L13.25 8.91664C13 8.8333 12.75 8.8333 12.5 8.8333C11.5 8.8333 10.5833 9.16664 9.83333 9.8333C8.83333 10.6666 8.33333 11.75 8.33333 13V186.5C8.33333 188.833 10.25 190.667 12.5 190.667H33.3333V194.833C33.3333 197.167 35.1667 199 37.5 199H12.5C5.58333 199 0 193.417 0 186.5V13C0 9.3333 1.58333 5.8333 4.41667 3.49997C7.25 1.0833 10.9167 0.0833027 14.5833 0.666636Z" fill="#E8E8E8"></path></svg>