<svg xmlns="http://www.w3.org/2000/svg" width="187" height="187" viewBox="0 0 187 187" fill="none"><g clip-path="url(#clip0_551_75)"><path d="M177.65 149.6H37.3999V9.35014C37.3999 4.18632 33.2139 0 28.0501 0H9.35014C4.18601 0 0 4.18632 0 9.35014V177.65C0 182.814 4.18601 187 9.35014 187H177.65C182.814 187 187 182.814 187 177.65V158.95C187 153.786 182.814 149.6 177.65 149.6ZM6.23332 177.65V9.35014C6.23332 7.62897 7.62866 6.23332 9.34983 6.23332H28.0498C29.771 6.23332 31.1666 7.62866 31.1666 9.35014V15.5835H28.0498C26.3286 15.5835 24.933 16.9788 24.933 18.7003C24.933 20.4214 26.3283 21.8168 28.0498 21.8168H31.1666V28.0501H21.8168C20.0956 28.0501 18.7 29.4454 18.7 31.1669C18.7 32.8881 20.0953 34.2837 21.8168 34.2837H31.1669V40.5171H28.0501C26.3289 40.5171 24.9333 41.9124 24.9333 43.6339C24.9333 45.355 26.3286 46.7507 28.0501 46.7507H31.1669V52.984H21.8168C20.0956 52.984 18.7 54.3793 18.7 56.1008C18.7 57.822 20.0953 59.2176 21.8168 59.2176H31.1669V65.451H28.0501C26.3289 65.451 24.9333 66.8463 24.9333 68.5678C24.9333 70.2893 26.3286 71.6846 28.0501 71.6846H31.1669V77.9179H21.8168C20.0956 77.9179 18.7 79.3133 18.7 81.0344C18.7 82.7556 20.0953 84.1512 21.8168 84.1512H31.1669V90.3846H28.0501C26.3289 90.3846 24.9333 91.7799 24.9333 93.5011C24.9333 95.2222 26.3286 96.6179 28.0501 96.6179H31.1669V102.851H21.8168C20.0956 102.851 18.7 104.247 18.7 105.968C18.7 107.689 20.0953 109.085 21.8168 109.085H31.1669V115.318H28.0501C26.3289 115.318 24.9333 116.713 24.9333 118.434C24.9333 120.156 26.3286 121.551 28.0501 121.551H31.1669V127.784H21.8168C20.0956 127.784 18.7 129.18 18.7 130.901C18.7 132.622 20.0953 134.018 21.8168 134.018H31.1669V140.251H28.0501C26.3289 140.251 24.9333 141.646 24.9333 143.368C24.9333 145.089 26.3286 146.484 28.0501 146.484H31.1669V152.717H21.8168C20.0956 152.717 18.7 154.113 18.7 155.834C18.7 157.556 20.0953 158.951 21.8168 158.951H31.1669V165.184H28.0501C26.3289 165.184 24.9333 166.58 24.9333 168.301C24.9333 170.023 26.3286 171.418 28.0501 171.418H31.1669V180.768H9.35014C7.62866 180.767 6.23332 179.371 6.23332 177.65ZM180.766 177.65C180.766 179.371 179.371 180.767 177.65 180.767H37.3999V155.833H43.6333V158.95C43.6333 160.671 45.0286 162.067 46.7501 162.067C48.4715 162.067 49.8669 160.671 49.8669 158.95V155.833H56.1002V165.183C56.1002 166.904 57.4955 168.3 59.217 168.3C60.9385 168.3 62.3338 166.905 62.3338 165.183V155.833H68.5672V158.95C68.5672 160.671 69.9625 162.067 71.684 162.067C73.4052 162.067 74.8005 160.671 74.8005 158.95V155.833H81.0338V165.183C81.0338 166.904 82.4291 168.3 84.1506 168.3C85.8721 168.3 87.2671 166.905 87.2671 165.183V155.833H93.5005V158.95C93.5005 160.671 94.8958 162.067 96.617 162.067C98.3381 162.067 99.7338 160.671 99.7338 158.95V155.833H105.967V165.183C105.967 166.904 107.362 168.3 109.084 168.3C110.805 168.3 112.2 166.905 112.2 165.183V155.833H118.434V158.95C118.434 160.671 119.829 162.067 121.55 162.067C123.271 162.067 124.667 160.671 124.667 158.95V155.833H130.9V165.183C130.9 166.904 132.296 168.3 134.017 168.3C135.738 168.3 137.134 166.905 137.134 165.183V155.833H143.367V158.95C143.367 160.671 144.762 162.067 146.484 162.067C148.205 162.067 149.6 160.671 149.6 158.95V155.833H155.833V165.183C155.833 166.904 157.229 168.3 158.95 168.3C160.671 168.3 162.067 166.905 162.067 165.183V155.833H168.3V158.95C168.3 160.671 169.695 162.067 171.417 162.067C173.138 162.067 174.533 160.671 174.533 158.95V155.833H177.65C179.371 155.833 180.767 157.229 180.767 158.95V177.65H180.766Z" fill="#E8E8E8"></path><path d="M180.143 25.1641L133.393 1.34642C129.875 -0.437822 125.716 -0.437822 122.198 1.34642L75.4483 25.1641C71.2017 27.3261 68.5384 31.6998 68.5667 36.4652V94.4352C68.5347 99.1941 71.1872 103.564 75.4234 105.733L122.173 129.551C125.691 131.337 129.851 131.337 133.368 129.551L180.118 105.733C184.364 103.571 187.027 99.1993 187 94.4352V36.4652C187.032 31.7054 184.38 27.3332 180.143 25.1641ZM125.015 6.90039C126.755 6.01549 128.812 6.01549 130.551 6.90039L177.301 30.718C177.382 30.7617 177.444 30.8303 177.525 30.8771L127.783 55.7322L78.0411 30.8768C78.1221 30.83 78.1845 30.7614 78.2654 30.7177L125.015 6.90039ZM78.2654 100.182C76.1172 99.075 74.7763 96.8517 74.7997 94.4349V36.4652C74.7997 36.3904 74.8277 36.3188 74.8308 36.244L124.666 61.1431V123.822L78.2654 100.182ZM180.766 94.4349C180.788 96.8505 179.448 99.0726 177.3 100.179L130.9 123.822V61.1428L180.735 36.2406C180.735 36.3154 180.766 36.3871 180.766 36.4618V94.4349Z" fill="#E8E8E8"></path></g><defs><clipPath id="clip0_551_75"><rect width="187" height="187" fill="white"></rect></clipPath></defs></svg>