<svg xmlns="http://www.w3.org/2000/svg" width="195" height="197" viewBox="0 0 195 197" fill="none"><path d="M194.999 19.4717C195.011 16.8086 193.957 14.2527 192.074 12.3798L182.688 2.94147C180.835 1.05696 178.308 -0.00225484 175.672 3.60418e-06H175.639C173.019 0.00161678 170.51 1.06147 168.674 2.94147L126.1 45.7538H42.2504V9.80455C42.2504 4.38945 37.885 3.60418e-06 32.5003 3.60418e-06H26.0003C11.6477 0.0161353 0.0165304 11.7123 0.000488281 26.145V170.763C0.813825 185.086 12.6773 196.237 26.9429 196.088H185.249C190.634 196.088 194.999 191.698 194.999 186.284V55.5584C194.999 50.1436 190.634 45.7538 185.249 45.7538H172.899L192.074 26.4719C193.94 24.6251 194.993 22.1044 194.999 19.4717ZM116.285 81.7034C115.597 81.7976 114.906 81.5543 114.426 81.0497C113.942 80.5664 113.703 79.8883 113.776 79.2065L115.008 68.095C115.059 67.8627 115.124 67.6333 115.203 67.4087L128.004 80.2819C127.793 80.3277 127.601 80.4322 127.38 80.4584L116.285 81.7034ZM133.311 76.3664L119.089 62.0617L154.514 26.4393L168.729 40.7307L133.311 76.3664ZM159.097 21.8146L163.917 16.9712L178.125 31.2627L173.309 36.1093L159.097 21.8146ZM6.50044 26.145C6.51135 15.32 15.2354 6.54691 26.0003 6.53626H32.5003C34.2951 6.53626 35.7504 7.99941 35.7504 9.80423V140.529C35.7504 142.334 34.2954 143.797 32.5003 143.797H26.0003C18.534 143.795 11.4286 147.027 6.50044 152.667V26.145ZM185.249 52.2901C187.044 52.2901 188.499 53.7532 188.499 55.5584V186.284C188.499 188.088 187.044 189.552 185.249 189.552H26.9429C16.214 189.733 7.22587 181.428 6.50044 170.662V169.943C6.51135 159.118 15.2354 150.345 26.0003 150.334H32.5003C37.885 150.334 42.25 145.945 42.25 140.53V52.2901H119.599L112.219 59.712C110.158 61.7536 108.862 64.4479 108.55 67.3397L107.318 78.4742C107.217 79.5601 107.319 80.6552 107.62 81.7031H52.0001C50.2053 81.7031 48.75 83.1662 48.75 84.9714C48.75 86.7762 50.205 88.2393 52.0001 88.2393H61.7502V176.479C61.7502 178.284 63.2052 179.747 65.0004 179.747C66.7955 179.747 68.2505 178.284 68.2505 176.479V130.725H104V156.87H81.2501C79.4553 156.87 78.0003 158.333 78.0003 160.138C78.0003 161.943 79.4553 163.406 81.2501 163.406H146.25C149.84 163.406 152.75 160.48 152.75 156.87V107.848C152.75 106.044 151.295 104.58 149.5 104.58C147.705 104.58 146.25 106.043 146.25 107.848V124.189H68.2502V88.2397H116.051C116.368 88.2403 116.685 88.2229 117 88.1874L128.105 86.9162C130.924 86.5945 133.555 85.335 135.58 83.3375L166.416 52.2904H185.249V52.2901ZM146.25 130.725V156.87H110.5V130.725H146.25ZM187.492 21.8375L182.721 26.6383L168.512 12.3501L173.286 7.54934C173.911 6.90471 174.767 6.53949 175.662 6.53626C176.573 6.53852 177.445 6.90826 178.083 7.56256L187.482 16.9945C188.136 17.6417 188.502 18.5263 188.499 19.4488C188.497 20.3489 188.133 21.21 187.492 21.8375Z" fill="#E8E8E8"></path></svg>